<?xml version="1.0" standalone="no"?>
<!DOCTYPE svg PUBLIC "-//W3C//DTD SVG 20010904//EN"
 "http://www.w3.org/TR/2001/REC-SVG-20010904/DTD/svg10.dtd">
<svg version="1.0" xmlns="http://www.w3.org/2000/svg"
 width="1024.000000pt" height="1024.000000pt" viewBox="0 0 1024.000000 1024.000000"
 preserveAspectRatio="xMidYMid meet">

<g transform="translate(0.000000,1024.000000) scale(0.100000,-0.100000)"
fill="#000000" stroke="none">
<path d="M0 5120 l0 -5120 5120 0 5120 0 0 5120 0 5120 -5120 0 -5120 0 0
-5120z m5040 3905 c0 -3 -33 -26 -72 -52 -188 -120 -409 -312 -518 -448 -26
-33 -84 -112 -128 -176 -69 -102 -108 -166 -209 -346 l-23 -41 -138 74 c-179
97 -412 272 -412 309 0 15 113 115 226 200 84 64 339 215 444 263 187 86 404
155 620 196 119 23 210 32 210 21z m614 -16 c325 -55 646 -177 941 -357 112
-68 292 -203 376 -282 l64 -59 -95 -93 c-52 -51 -119 -106 -148 -121 -50 -27
-304 -127 -322 -127 -10 0 -64 80 -123 185 -131 230 -334 484 -506 630 -84 71
-297 225 -313 225 -4 0 -8 5 -8 10 0 13 -7 13 134 -11z m-2625 -126 c71 -23
133 -80 172 -158 29 -59 31 -72 27 -132 -12 -159 -116 -253 -283 -253 -86 0
-154 23 -208 70 -109 96 -129 249 -49 368 30 45 90 93 137 110 46 16 147 14
204 -5z m4697 -11 c77 -39 144 -133 165 -231 14 -66 -6 -138 -58 -205 -93
-121 -237 -164 -353 -106 -135 69 -196 255 -127 387 46 89 111 150 185 174 43
14 143 4 188 -19z m-2534 -99 c1 -65 1 -334 0 -597 l-4 -479 -116 7 c-165 9
-350 41 -531 91 -198 55 -297 96 -293 119 2 10 28 61 59 114 181 315 333 501
528 647 132 99 317 214 347 215 3 0 8 -53 10 -117z m310 48 c194 -127 388
-309 526 -492 117 -156 273 -423 255 -438 -16 -14 -240 -90 -368 -125 -121
-34 -271 -56 -471 -70 l-71 -5 -6 112 c-4 62 -7 331 -7 600 0 472 1 487 19
487 11 0 66 -31 123 -69z m-1937 -733 c103 -82 248 -174 353 -225 50 -25 92
-49 92 -54 0 -6 -6 -22 -14 -37 -40 -78 -152 -432 -185 -587 -25 -117 -71
-489 -71 -577 0 -17 -31 -18 -510 -18 l-510 0 0 40 c0 112 66 453 121 626 109
342 228 556 493 887 l70 87 46 -43 c25 -24 77 -69 115 -99z m4015 -56 c0 -9
-194 -213 -619 -652 -152 -157 -313 -324 -358 -372 -64 -69 -82 -84 -88 -71
-3 10 -5 127 -4 262 l1 245 -28 23 c-38 30 -70 29 -103 -5 l-28 -28 -5 -341
c-4 -291 -7 -346 -21 -366 -9 -14 -111 -122 -226 -240 l-211 -215 -19 31
c-141 233 -175 486 -99 737 70 227 281 498 488 625 251 155 597 266 995 320
66 9 156 24 200 35 89 20 125 24 125 12z m80 -262 c0 -81 -23 -368 -41 -520
-31 -263 -133 -581 -237 -739 -58 -89 -179 -217 -269 -285 -91 -68 -277 -166
-363 -190 -206 -57 -448 -30 -642 73 -49 25 -88 48 -88 52 0 5 398 429 509
542 l37 38 34 -18 c30 -15 75 -18 337 -21 166 -3 314 -1 327 2 62 15 89 102
45 142 -19 18 -42 19 -293 22 -149 1 -277 5 -284 7 -18 7 3 30 487 546 241
256 423 439 433 433 4 -3 8 -41 8 -84z m-3444 -47 c87 -40 321 -110 463 -138
149 -31 349 -55 449 -55 l72 0 -2 -472 -3 -473 -52 0 c-29 1 -321 2 -649 3
l-596 2 6 98 c17 242 79 576 141 762 39 115 107 300 111 300 1 0 28 -12 60
-27z m-1752 -84 c36 -17 68 -67 73 -113 4 -33 -1 -50 -26 -89 -59 -91 -163
-104 -233 -28 -34 36 -38 46 -38 92 0 121 111 189 224 138z m5776 -14 c66 -34
92 -110 62 -178 -46 -103 -169 -129 -247 -52 -62 63 -56 145 16 209 34 31 46
36 90 36 27 0 63 -7 79 -15z m-2366 -54 c3 -4 -15 -35 -40 -67 -114 -147 -176
-261 -227 -419 -46 -143 -61 -250 -55 -391 l5 -113 -93 -3 -94 -3 0 478 0 477
68 0 c72 0 304 25 362 39 48 12 68 13 74 2z m1935 -576 c9 -55 27 -242 33
-357 3 -46 3 -46 -32 -52 -56 -9 -180 -7 -180 4 0 5 10 33 21 62 39 96 87 246
99 305 28 140 39 148 59 38z m582 -263 c56 -36 116 -102 140 -156 60 -132 -35
-276 -183 -276 -68 1 -123 26 -170 78 -44 49 -53 76 -45 145 10 81 99 195 178
226 33 13 30 14 80 -17z m-6111 -3 c124 -56 180 -177 131 -284 -23 -51 -102
-121 -153 -137 -105 -31 -246 69 -263 187 -14 90 41 181 137 229 62 31 89 32
148 5z m1468 -471 c25 -312 96 -616 213 -905 28 -68 48 -127 45 -132 -3 -5
-41 -26 -83 -46 -145 -71 -288 -169 -422 -289 -40 -36 -77 -66 -81 -66 -15 0
-151 151 -222 247 -105 141 -181 266 -254 418 -80 168 -127 304 -169 490 -29
131 -38 189 -60 381 -2 23 -1 44 2 48 3 3 234 6 513 6 l506 0 12 -152z m1445
-290 c-3 -324 -8 -445 -16 -450 -7 -4 -33 -8 -59 -8 -186 0 -714 -115 -893
-194 l-55 -25 -20 39 c-76 149 -170 455 -209 685 -14 81 -41 319 -41 361 l0
34 648 0 649 0 -4 -442z m386 432 l47 0 41 -84 c23 -46 56 -100 72 -119 l31
-34 -120 -116 c-107 -104 -120 -120 -120 -150 0 -41 30 -82 65 -91 42 -11 87
19 195 130 99 101 103 104 124 89 87 -64 136 -91 216 -121 134 -51 211 -66
338 -67 l114 -2 -7 -30 c-4 -16 -11 -46 -15 -65 -26 -115 -126 -400 -149 -423
-4 -4 -41 5 -82 21 -107 43 -193 68 -332 98 -220 47 -390 74 -509 80 l-118 7
0 437 c0 240 3 440 8 444 4 5 40 5 81 2 41 -3 95 -6 120 -6z m2273 -35 c-13
-167 -76 -449 -140 -631 -95 -267 -344 -673 -533 -868 l-48 -50 -68 70 c-84
85 -288 231 -405 290 -47 24 -89 47 -92 52 -3 5 8 38 25 73 55 116 115 311
153 494 l12 59 79 29 c122 42 200 82 310 155 112 75 282 239 329 318 l29 49
176 0 176 0 -3 -40z m-5450 -675 c73 -21 128 -87 128 -155 0 -81 -65 -135
-164 -135 -47 0 -60 4 -90 30 -60 53 -69 124 -24 198 18 29 77 71 103 72 6 0
27 -5 47 -10z m5870 -50 c45 -47 48 -53 48 -102 0 -96 -53 -148 -151 -148 -64
0 -110 26 -134 77 -46 95 39 222 149 223 35 0 46 -6 88 -50z m-2577 -305 c314
-67 400 -88 513 -126 142 -49 137 -36 64 -167 -96 -170 -221 -328 -389 -494
-118 -116 -177 -168 -262 -231 -59 -44 -223 -137 -240 -137 -8 0 -11 180 -11
594 l0 594 108 -5 c59 -3 157 -16 217 -28z m-504 -37 c6 -258 2 -1118 -4
-1118 -38 0 -203 108 -366 240 -180 146 -307 293 -459 532 -84 132 -112 181
-112 196 0 34 574 177 806 201 146 15 134 20 135 -51z m1420 -280 c140 -85
201 -130 304 -222 104 -94 104 -94 42 -144 -29 -23 -79 -65 -112 -93 -178
-152 -536 -343 -794 -423 -93 -29 -312 -70 -436 -81 l-80 -7 25 19 c14 10 37
26 52 36 14 9 84 62 155 118 154 122 308 271 407 394 92 113 223 309 270 403
20 40 39 72 41 72 3 0 60 -33 126 -72z m-2448 -53 c108 -207 321 -485 468
-612 90 -77 218 -176 301 -232 42 -28 80 -56 83 -61 16 -26 -220 5 -385 50
-276 77 -458 152 -670 280 -174 104 -400 277 -400 305 0 20 160 165 236 214
98 62 298 170 306 165 4 -3 31 -51 61 -109z m-1060 -181 c14 -5 4 -20 -55 -83
-40 -42 -107 -116 -148 -166 -41 -49 -102 -122 -135 -161 -33 -39 -65 -79 -72
-90 -10 -17 -13 -14 -34 31 -34 74 -38 182 -8 260 36 97 140 188 246 215 39
10 176 6 206 -6z m4584 -19 c67 -36 152 -125 189 -196 23 -44 28 -67 28 -129
1 -65 -3 -82 -28 -127 -31 -56 -40 -59 -49 -16 -8 38 -246 333 -306 380 -62
49 -99 102 -79 115 7 5 54 7 103 6 76 -3 98 -8 142 -33z m-4456 -117 c9 -21
14 -68 13 -123 -1 -104 -16 -144 -90 -238 -51 -66 -130 -110 -215 -122 -59 -8
-141 9 -164 35 -15 17 -14 19 18 39 38 23 198 200 316 349 42 52 82 92 91 92
10 0 23 -14 31 -32z m4157 -10 c179 -204 298 -321 398 -394 l28 -21 -25 -25
c-17 -17 -47 -30 -84 -38 -107 -22 -195 8 -282 97 -77 79 -105 143 -111 258
-5 92 8 165 30 165 5 0 26 -19 46 -42z m585 -1062 c54 -22 87 -70 87 -124 -1
-26 -6 -57 -13 -69 -16 -30 -73 -70 -107 -78 -40 -9 -102 11 -131 41 -21 22
-24 35 -24 94 0 65 2 71 34 104 45 46 95 57 154 32z m-5180 -23 c54 -59 262
-319 349 -435 122 -164 237 -308 246 -308 4 0 6 93 4 207 -4 262 9 528 26 545
8 8 50 14 111 16 155 6 141 67 141 -630 l0 -579 -23 -23 c-29 -29 -120 -42
-187 -27 -57 12 -105 62 -263 273 -63 84 -144 191 -179 238 -65 84 -153 212
-162 234 -3 7 -8 6 -15 -4 -8 -10 -11 -122 -10 -350 1 -184 -2 -342 -6 -351
-10 -27 -52 -39 -131 -39 -70 0 -78 2 -105 29 l-29 29 0 570 c0 314 3 578 6
587 11 27 63 44 136 45 60 0 69 -3 91 -27z m2026 -9 c231 -76 397 -272 432
-510 14 -92 -1 -227 -36 -329 -87 -249 -347 -420 -614 -402 -172 11 -292 65
-408 182 -139 140 -201 308 -190 509 14 242 140 431 354 528 146 66 307 74
462 22z m905 17 c18 -20 95 -200 162 -381 43 -118 166 -435 185 -480 10 -23
11 -23 21 -6 11 19 65 163 122 321 18 50 46 122 63 160 17 39 34 81 38 95 4
14 17 43 30 65 12 22 32 71 45 109 12 37 34 81 49 97 25 27 31 28 116 30 120
1 121 1 139 -17 27 -27 18 -70 -45 -217 -34 -78 -81 -189 -104 -247 -46 -115
-171 -403 -259 -600 -31 -69 -68 -135 -83 -148 -24 -22 -33 -24 -130 -20 -98
3 -105 5 -123 28 -10 14 -107 230 -214 480 -287 669 -286 666 -263 710 11 22
21 26 77 31 131 11 156 10 174 -10z m1805 -8 c16 -16 45 -74 70 -136 23 -59
53 -133 66 -165 13 -31 72 -174 130 -317 59 -143 131 -316 160 -385 69 -165
72 -177 44 -206 -21 -22 -30 -24 -126 -24 -95 0 -106 2 -127 23 -23 23 -76
164 -76 201 0 17 -6 18 -77 12 -42 -3 -156 -6 -253 -6 l-177 0 -36 -92 c-21
-51 -41 -99 -46 -106 -11 -19 -74 -31 -152 -32 -74 0 -119 24 -119 63 0 22 74
223 90 242 4 5 22 51 40 100 18 50 39 99 46 111 8 11 23 47 34 79 11 32 29 73
39 90 10 17 24 49 31 71 6 21 27 73 45 114 19 41 61 137 93 214 33 76 67 147
76 157 13 16 30 19 107 19 85 0 92 -2 118 -27z m-4544 -1582 c22 -10 59 -36
83 -57 l43 -39 -51 -43 -51 -44 -33 30 c-40 35 -98 48 -152 33 -82 -22 -114
-69 -114 -164 0 -99 64 -157 174 -157 56 0 61 2 95 39 l35 38 47 -36 c26 -20
48 -42 48 -49 2 -25 -85 -97 -139 -116 -118 -42 -237 -11 -323 84 -80 89 -102
236 -51 338 37 75 129 145 214 163 48 10 127 1 175 -20z m608 -98 c4 -58 7
-159 7 -225 l0 -118 93 0 c50 0 109 -3 130 -6 l37 -7 0 -57 0 -57 -46 -7 c-26
-3 -113 -6 -194 -6 -120 0 -149 3 -153 14 -3 8 -4 138 -1 288 l5 273 27 6 c15
4 41 7 58 8 l31 1 6 -107z m810 -45 c4 -83 7 -213 7 -289 0 -137 0 -139 -23
-145 -13 -3 -41 -4 -63 -2 l-39 3 -2 75 c-1 41 1 173 4 293 l6 217 52 0 52 0
6 -152z m507 139 c17 -14 120 -156 169 -234 l33 -53 74 113 c135 206 117 188
185 186 l59 -2 0 -287 0 -287 -47 -6 c-27 -3 -52 -1 -58 4 -5 6 -12 77 -14
159 -2 83 -7 150 -12 150 -5 0 -30 -34 -56 -77 -55 -88 -110 -153 -128 -153
-19 0 -74 64 -130 152 -28 43 -54 78 -60 78 -6 0 -10 -56 -10 -150 0 -101 -4
-153 -12 -161 -8 -8 -29 -9 -65 -5 l-53 7 -3 289 -3 290 58 0 c32 0 65 -6 73
-13z m1195 -18 c9 -17 41 -96 71 -176 30 -80 77 -194 104 -253 28 -59 50 -112
50 -119 0 -8 -19 -11 -67 -9 l-66 3 -14 39 c-22 66 -23 66 -155 66 l-119 0
-24 -55 -25 -55 -61 0 -61 0 7 28 c3 15 31 82 61 148 30 67 54 125 54 129 0 8
48 120 97 228 l27 57 53 0 c49 0 54 -2 68 -31z m1029 -15 c13 -99 18 -94 -88
-94 l-94 0 5 -162 c3 -90 1 -188 -4 -218 l-8 -55 -52 -5 c-28 -3 -57 -4 -62
-2 -8 3 -9 60 -5 186 4 100 4 199 0 219 l-7 37 -96 0 c-83 0 -94 2 -89 16 3 9
6 40 6 70 l0 54 244 0 243 0 7 -46z m816 -19 l0 -65 -150 0 -150 0 0 -24 c0
-13 -3 -38 -7 -56 l-6 -33 105 5 c58 3 117 3 132 1 26 -5 27 -8 24 -61 l-3
-56 -110 2 c-60 2 -115 -1 -122 -5 -6 -5 -13 -28 -14 -52 l-3 -44 148 -2 c167
-2 166 -2 166 -77 0 -41 -3 -48 -22 -53 -13 -3 -111 -4 -218 -2 l-195 3 -7
279 c-4 154 -6 286 -3 293 3 9 56 12 220 12 l215 0 0 -65z"/>
<path d="M3286 7339 c-42 -33 -69 -94 -61 -140 12 -71 81 -129 154 -129 55 0
131 85 131 145 0 108 -144 187 -224 124z"/>
<path d="M4580 7192 c-49 -22 -90 -78 -90 -122 0 -58 62 -120 120 -120 90 0
153 125 99 194 -36 45 -90 65 -129 48z"/>
<path d="M3300 5854 c-92 -58 -91 -187 2 -244 43 -26 77 -25 119 3 47 31 71
81 66 137 -4 36 -13 51 -46 82 -32 30 -48 38 -78 38 -21 0 -49 -8 -63 -16z"/>
<path d="M4571 5997 c-43 -15 -71 -52 -78 -104 -5 -35 -1 -45 28 -78 41 -47
89 -68 122 -56 32 12 87 77 88 104 4 70 -14 111 -56 131 -39 19 -58 19 -104 3z"/>
<path d="M7185 5830 c-36 -14 -66 -57 -72 -99 -10 -77 70 -155 141 -137 34 9
85 65 92 102 8 46 -27 101 -80 125 -46 21 -52 21 -81 9z"/>
<path d="M7855 3515 c-49 -48 -22 -177 33 -161 9 2 32 7 49 11 68 14 98 108
50 153 -34 32 -100 30 -132 -3z m103 -17 c7 -7 12 -17 12 -24 0 -15 -51 -94
-61 -94 -12 0 -27 24 -33 57 -6 25 -3 36 13 52 24 24 51 27 69 9z"/>
<path d="M4531 3285 c-68 -19 -109 -44 -154 -95 -47 -51 -64 -85 -83 -166 -17
-75 -12 -143 17 -239 22 -74 86 -142 169 -183 47 -23 67 -27 140 -27 74 1 93
5 145 30 142 70 216 208 202 378 -10 120 -86 230 -197 287 -56 29 -166 35
-239 15z"/>
<path d="M7391 3164 c-7 -25 -34 -107 -62 -182 -28 -74 -53 -148 -56 -164 l-5
-28 146 0 c80 0 146 3 146 8 -1 22 -139 407 -147 409 -6 2 -16 -17 -22 -43z"/>
<path d="M6016 1768 c-4 -18 -17 -60 -31 -92 -13 -33 -22 -62 -20 -64 8 -8
155 -15 155 -7 0 15 -83 195 -90 195 -4 0 -11 -15 -14 -32z"/>
</g>
</svg>
